<svg width="16" height="16" viewBox="0 0 16 16" fill="none" xmlns="http://www.w3.org/2000/svg">
<path d="M7.99984 13.3333L5.99984 11.3333H4.6665C4.13607 11.3333 3.62736 11.1226 3.25229 10.7476C2.87722 10.3725 2.6665 9.86378 2.6665 9.33334V5.33334C2.6665 4.80291 2.87722 4.2942 3.25229 3.91913C3.62736 3.54406 4.13607 3.33334 4.6665 3.33334H11.3332C11.8636 3.33334 12.3723 3.54406 12.7474 3.91913C13.1225 4.2942 13.3332 4.80291 13.3332 5.33334V9.33334C13.3332 9.86378 13.1225 10.3725 12.7474 10.7476C12.3723 11.1226 11.8636 11.3333 11.3332 11.3333H9.99984L7.99984 13.3333Z" stroke="#97989F" stroke-linecap="round" stroke-linejoin="round"/>
<path d="M5.3335 6H10.6668" stroke="white" stroke-width="1.25" stroke-linecap="round" stroke-linejoin="round"/>
<path d="M5.3335 8.66666H9.3335" stroke="white" stroke-width="1.25" stroke-linecap="round" stroke-linejoin="round"/>
</svg>
