<svg width="20" height="20" viewBox="0 0 20 20" fill="none" xmlns="http://www.w3.org/2000/svg">
<path d="M10.0002 16.6667L7.50016 14.1667H5.8335C5.17045 14.1667 4.53457 13.9033 4.06573 13.4345C3.59689 12.9656 3.3335 12.3297 3.3335 11.6667V6.66669C3.3335 6.00365 3.59689 5.36776 4.06573 4.89892C4.53457 4.43008 5.17045 4.16669 5.8335 4.16669H14.1668C14.8299 4.16669 15.4658 4.43008 15.9346 4.89892C16.4034 5.36776 16.6668 6.00365 16.6668 6.66669V11.6667C16.6668 12.3297 16.4034 12.9656 15.9346 13.4345C15.4658 13.9033 14.8299 14.1667 14.1668 14.1667H12.5002L10.0002 16.6667Z" stroke="white" stroke-width="1.25" stroke-linecap="round" stroke-linejoin="round"/>
<path d="M6.6665 7.5H13.3332" stroke="white" stroke-width="1.25" stroke-linecap="round" stroke-linejoin="round"/>
<path d="M6.6665 10.8333H11.6665" stroke="white" stroke-width="1.25" stroke-linecap="round" stroke-linejoin="round"/>
</svg>
