<svg width="20" height="20" viewBox="0 0 20 20" fill="none" xmlns="http://www.w3.org/2000/svg">
<path d="M5.83333 9.16665V15.8333C5.83333 16.0543 5.74554 16.2663 5.58926 16.4226C5.43298 16.5788 5.22101 16.6666 5 16.6666H3.33333C3.11232 16.6666 2.90036 16.5788 2.74408 16.4226C2.5878 16.2663 2.5 16.0543 2.5 15.8333V9.99998C2.5 9.77897 2.5878 9.567 2.74408 9.41072C2.90036 9.25444 3.11232 9.16665 3.33333 9.16665H5.83333ZM5.83333 9.16665C6.71739 9.16665 7.56523 8.81546 8.19036 8.19034C8.81548 7.56521 9.16667 6.71737 9.16667 5.83331V4.99998C9.16667 4.55795 9.34226 4.13403 9.65482 3.82147C9.96738 3.50891 10.3913 3.33331 10.8333 3.33331C11.2754 3.33331 11.6993 3.50891 12.0118 3.82147C12.3244 4.13403 12.5 4.55795 12.5 4.99998V9.16665H15C15.442 9.16665 15.866 9.34224 16.1785 9.6548C16.4911 9.96736 16.6667 10.3913 16.6667 10.8333L15.8333 15C15.7135 15.5112 15.4861 15.9502 15.1855 16.2508C14.8849 16.5514 14.5274 16.6973 14.1667 16.6666H8.33333C7.67029 16.6666 7.03441 16.4033 6.56557 15.9344C6.09673 15.4656 5.83333 14.8297 5.83333 14.1666" stroke="white" stroke-width="1.25" stroke-linecap="round" stroke-linejoin="round"/>
</svg>
